<svg id="SvgjsSvg1012" width="288" height="288" xmlns="http://www.w3.org/2000/svg" version="1.1" xmlns:xlink="http://www.w3.org/1999/xlink" xmlns:svgjs="http://svgjs.com/svgjs"><defs id="SvgjsDefs1013"></defs><g id="SvgjsG1014" transform="matrix(1,0,0,1,0,0)"><svg xmlns="http://www.w3.org/2000/svg" viewBox="0 0 25 25" width="288" height="288"><path fill="#ffbf66" d="M12.5,21A7.5,7.5,0,0,1,6.713,8.729a.5.5,0,1,1,.771.637A6.5,6.5,0,1,0,12.5,7h-3a.5.5,0,0,1,0-1h3a7.5,7.5,0,0,1,0,15Z" class="color5596ff svgShape"></path><path fill="#ffbf66" d="M11.5,9a.5.5,0,0,1-.354-.146l-2-2a.5.5,0,0,1,.708-.708l2,2A.5.5,0,0,1,11.5,9Z" class="color5596ff svgShape"></path><path fill="#ffbf66" d="M9.5,7a.5.5,0,0,1-.354-.854l2-2a.5.5,0,0,1,.708.708l-2,2A.5.5,0,0,1,9.5,7Z" class="color5596ff svgShape"></path></svg></g></svg>